<svg width="1722" height="573" viewBox="0 0 1722 573" fill="none" xmlns="http://www.w3.org/2000/svg">
<path d="M0 224.106C0 214.959 8.62111 204.304 12.7662 196.749C28.3856 168.278 43.0914 139.233 60.0655 111.533C61.7584 108.771 79.3678 75.4091 85.9653 79.7391C96.2675 86.5005 102.627 102.668 107.64 113.197C115.851 130.441 123.028 148.127 130.509 165.694C135.11 176.497 136.152 162.865 137.306 156.914C142.946 127.826 149.786 98.489 167.981 74.5634C182.926 54.9124 201.665 36.6474 224.098 25.948C242.323 17.2551 262.475 16.151 282.326 16.151C302.375 16.151 327.865 18.451 344.963 29.9223C356.798 37.8621 365.379 49.2326 376.374 58.1118C384.172 64.4094 392.242 70.028 397.681 78.63C402.136 85.674 442.054 57.6333 447.093 54.5996C471.759 39.75 495.549 24.5747 522.037 13.1934C532.417 8.73376 543.006 4.82984 553.448 0.531219C558.671 -1.61913 560.239 3.18107 562.265 7.37064C571.642 26.7691 587.684 51.7651 605.064 64.3966C611.068 68.7602 618.23 70.4732 623.983 75.2103C626.865 77.5833 628.106 80.2431 631.055 76.227C642.778 60.2662 652.661 44.4155 666.966 30.4768C675.947 21.726 686.476 12.3755 698.376 7.83276C701.294 6.71913 707.603 3.31911 710.867 4.87518C722.957 10.6383 732.759 23.3283 743.012 31.7707C752.944 39.9481 749.923 49.5579 765.238 49.4238C794.861 49.1646 821.502 44.848 849.734 35.9299C867.47 30.3272 885.232 24.7051 903.187 19.848C905.133 19.3214 913.531 15.5373 914.116 19.6631C915.334 28.2434 914.208 37.8387 914.208 46.4663C914.208 74.5135 906.501 116.713 936.618 131.867C958.018 142.634 988.434 140.756 1010.28 133.992C1039.36 124.988 1066.45 110.088 1095.32 100.257C1124.92 90.1786 1158.28 82.1624 1189.74 82.974C1201.85 83.2866 1216.88 86.8951 1221.7 99.518C1228.72 117.89 1231.34 138.735 1235.48 157.93C1237.89 169.141 1242.46 168.725 1252.93 173.643C1270.43 181.862 1288.68 188.194 1306.47 195.732C1318.25 200.723 1331.52 215.191 1345.32 208.764C1362.23 200.891 1376.07 184.709 1392.16 174.936C1397.34 171.793 1415 158.857 1422.47 163.291C1433.5 169.838 1429.08 189.288 1441.76 193.976C1467.29 203.42 1497.63 194 1524.05 195.085C1535.18 195.542 1538.34 199.91 1540.58 210.058C1540.93 211.659 1541.83 227.994 1544.07 227.064C1546.23 226.167 1550.32 226.603 1551.97 225.4C1560.93 218.842 1577.04 215.324 1587.88 214.309C1599.02 213.266 1617.89 210.989 1629.12 214.217C1632.07 215.067 1638.16 229.317 1638.3 232.794C1638.56 239.356 1651.78 233.956 1654.83 233.072C1669.85 228.721 1683.09 219.871 1693.13 207.747C1701.18 198.022 1704.25 183.439 1716 177.524" stroke="#817F7F" stroke-opacity="0.48" stroke-width="3" stroke-linecap="round"/>
<path d="M8.28084 563.403C8.28084 555.525 16.5775 548.224 20.9255 542.345C38.5154 518.56 59.7243 497.283 85.0649 482.033C97.6695 474.448 110.816 469.533 123.365 479.539C133.648 487.739 144.654 495.074 154.702 503.553C166.121 513.19 172.994 530.242 183.015 541.606C187.184 546.333 192.085 551.763 194.652 557.585C196.639 562.092 199.19 547.208 199.966 545.393C220.833 496.565 254.796 444.541 299.474 414.517C319.151 401.294 362.635 390.256 381.756 409.53C399.115 427.028 408.514 451.104 414.833 474.46C419.398 491.331 420.613 511.565 427.936 527.383C430.71 533.374 436.235 538.361 440.764 543.084C443.326 545.755 443.746 548.92 445.712 551.396C446.782 552.745 451.054 565.99 451.942 565.99C455.204 565.99 470.627 534.921 472.559 531.908C502.392 485.381 532.098 438.003 565.653 394.105C584.525 369.416 619.001 318.421 656.914 337.026C669.537 343.221 687.482 353.297 694.756 366.305C700.555 376.676 705.545 387.462 710.883 398.077C719.495 415.204 730.62 432.301 734.339 451.462C738.436 472.567 742.132 493.501 747.9 514.267C750.72 524.418 757.063 537.137 757.063 547.702C757.063 550.18 756.984 561.498 759.079 563.034C768.901 570.235 800.783 511.607 802.602 508.171C835.304 446.404 849.379 376.298 884.884 315.968C893.342 301.596 898.797 294.078 915.212 294.078C934.86 294.078 960.153 289.78 978.985 295.925C996.733 301.717 1017.37 313.745 1024.62 332.131C1031.1 348.564 1032.34 366.37 1036.16 383.484C1041.67 408.124 1046.14 433.63 1053.11 457.835C1057.63 473.527 1067.13 492.699 1067.13 509.187C1067.13 519.701 1077.76 530.272 1082.34 539.205C1085.91 546.162 1091.45 553.089 1093.89 560.448C1094.35 561.846 1096.47 569.268 1096.82 566.359C1099.3 545.835 1107.66 524.917 1113.31 505.216C1124.86 464.974 1135.99 424.557 1149.05 384.777C1158.46 356.093 1169.95 328.262 1180.93 300.174C1186.87 284.98 1191.16 266.937 1200.54 253.347C1209.28 240.68 1228.54 229.73 1242.51 224.345C1273.55 212.382 1299.75 233.004 1323.41 251.684C1346.29 269.741 1364.69 291.61 1377.02 318.184C1383.08 331.26 1390.88 345.828 1393.33 360.209C1396.48 378.761 1398.14 397.516 1401.57 415.995C1406.32 441.533 1412.51 467.044 1416.78 492.655C1418.64 503.764 1419.25 511.031 1427.41 519.255C1431.81 523.69 1433.92 525.092 1435.84 530.892C1437.22 535.068 1442.11 539.306 1443.08 542.715C1444.24 546.793 1445.86 551.156 1448.94 554.26C1451.43 556.767 1452.65 560.315 1454.35 563.403C1456.02 566.44 1456.23 562.629 1456.37 560.54C1458.06 535.303 1459.44 510.233 1462.41 485.081C1469.25 427.252 1474.37 365.516 1491.92 309.595C1498.25 289.412 1505.97 269.511 1512.99 249.56C1514.49 245.302 1516.4 236.838 1520.32 233.674C1523.18 231.373 1531.08 242.933 1532.42 244.48C1541.47 254.98 1549.66 266.179 1558.62 276.714C1564.85 284.037 1570.6 291.182 1575.48 299.435C1597.78 337.164 1612.82 379.799 1624.78 421.998C1628.09 433.688 1631.55 445.383 1632.47 457.557C1633.01 464.524 1631.07 474.006 1637.15 478.801C1649.43 488.489 1662.03 497.452 1674.53 506.786C1690.07 518.392 1691.14 538.523 1698.45 555.091C1699.97 558.542 1703.76 572.4 1703.76 570.885C1703.76 527.639 1705.93 484.425 1705.32 441.117C1704.95 415.331 1700.18 390.96 1697.16 365.566C1693.44 334.231 1696.94 302.619 1701.38 271.542C1702.99 260.277 1707.27 277.079 1710.36 280.778C1713.22 284.205 1714.4 289.962 1713.47 280.132C1710.84 252.269 1700.66 224.831 1694.41 197.745C1684.27 153.751 1675.6 110.986 1659.5 68.8091C1656.56 61.104 1651.78 57.4954 1662.99 61.6049C1674.93 65.9822 1695.23 72.7488 1705.04 81.6473C1707.04 83.4596 1710.57 83.3912 1713.29 84.2334C1714.76 84.6878 1716.27 84.2856 1717.69 84.6952C1718.33 84.8793 1719.41 87.4275 1719.89 87.189C1722.57 85.8393 1676.67 39.1943 1672.52 35.0049C1667.02 29.4642 1658.04 25.6442 1651.62 21.3354C1637.15 11.609 1621.67 7.40978 1604.34 6.55765C1596.65 6.17913 1588.1 5.39906 1581.35 9.79029C1572.29 15.6806 1569.13 28.3969 1566.04 38.0528C1559.35 59.0419 1555.77 81.0935 1552.76 102.89C1550.66 118.06 1550.44 133.226 1550.38 148.517C1550.35 155.525 1553.32 171.43 1549.37 178.072C1545.46 184.641 1503.15 145.273 1499.16 141.774C1473.25 119.077 1453.48 88.0296 1425.76 67.7931C1412.55 58.1463 1399.56 59.8597 1384.71 56.7098C1373.87 54.4078 1379.36 71.3415 1380.5 77.7681C1383.75 96.149 1392.42 112.609 1399.01 129.86C1400.44 133.628 1411.47 157.862 1407.44 157.384C1387.67 155.039 1366.89 144.866 1349.16 136.51C1317.95 121.798 1289.01 102.437 1259.18 85.157C1236.6 72.0767 1213.24 57.4841 1188.26 49.5056C1173.32 44.7331 1157.23 43.7808 1141.72 42.3014C1133.7 41.5367 1121.32 39.3548 1114.04 44.1487C1105.86 49.5392 1105.68 64.0859 1105.25 72.5959C1102.72 122.336 1118.5 171.037 1125.22 220.004C1127.14 233.93 1128.79 247.93 1131.36 261.752C1132.08 265.589 1133.57 270.11 1133.1 274.128C1133.08 274.33 1132.92 275.267 1132.37 275.052C1125.64 272.412 1117.3 264.566 1112.12 260.551C1084.71 239.311 1058.7 216.278 1032.31 193.774C1004.98 170.46 976.63 142.292 941.051 132.354C930.861 129.507 902.375 124.427 892.58 131.338C888.102 134.498 889.007 142.197 889.007 146.854C889.007 161.254 890.415 175.216 894.138 189.156C897.753 202.691 901.938 217.952 909.531 229.979C909.968 230.671 893.425 213.885 889.923 210.584C865.499 187.563 835.582 170.095 802.327 163.849C796.073 162.674 788.506 161.263 782.077 161.263C778.37 161.263 779.008 171.856 778.87 173.824C776.48 208.097 776.854 242.376 776.854 276.714C776.854 293.955 776.854 311.196 776.854 328.436C776.854 338.84 776.287 349.098 775.572 359.47C775.325 363.038 776.631 371.072 774.381 374.248C771.287 378.613 771.426 363.926 769.524 358.916C761.466 337.684 749.84 317.462 737.821 298.327C716.289 264.046 693.059 225.881 654.715 208.829C630.565 198.089 604.02 193.228 577.839 191.372C560.812 190.166 553.055 192.565 543.57 206.704C529.347 227.907 511.812 247.375 500.872 270.618C489.501 294.775 484.454 322.354 480.347 348.571C478.031 363.358 476.792 378.211 473.383 392.812C473.282 393.247 471.957 398.077 471.734 398.077C471.289 398.077 471.57 397.183 471.368 396.784C467.766 389.697 462.187 382.878 457.898 376.372C428.992 332.522 407.182 284.887 379.923 240.139C364.519 214.852 349.704 201.844 323.48 223.145C292.227 248.531 266.216 280.161 237.442 308.209C219.409 325.787 197.201 343.419 189.795 368.614C181.284 397.57 172.505 429.429 169.271 459.497C168.411 467.493 166.328 491.406 168.263 483.603C170.632 474.052 171.71 462.871 171.928 453.124C172.92 408.812 155.422 368.957 113.47 352.635C97.9106 346.582 84.1548 344.335 71.8705 357.068C48.9487 380.828 39.0872 414.073 30.4548 445.181C24.2048 467.703 11.3358 487.003 5.07387 509.095C4.24315 512.026 4.98224 502.999 4.98224 499.951C4.98224 485.835 3.39815 472.707 1.77527 458.666C-2.98928 417.443 1.72611 373.579 17.2604 335.271C25.1809 315.739 35.0179 296.143 45.1152 277.638C51.7291 265.516 59.0722 255.185 72.97 251.223C90.113 246.335 110.052 245.805 126.664 252.608C141.299 258.601 149.801 269.193 160.016 280.778C161.099 282.006 173.821 296.591 174.035 296.202C177.503 289.91 174.826 276.431 174.86 269.695C174.951 251.731 175.967 233.867 178.159 216.033C182.574 180.109 204.437 151.871 228.737 126.165C239.989 114.263 253.654 102.995 268.962 96.8869C285.728 90.1971 305.073 91.0751 322.747 91.6223C373.12 93.182 452.829 102.01 467.702 162.556C473.801 187.382 475.033 214.603 475.033 240.139C475.033 259.214 477.912 231.949 479.339 226.747C487.338 197.595 511.424 175.421 532.575 155.536C548.875 140.212 570.249 117.843 594.24 116.283C602.039 115.776 604.284 118.296 610.092 123.21C621.052 132.482 631.827 143.072 644.361 150.179C648.489 152.52 653.435 153.892 657.372 156.46C668.267 163.566 674.225 182.123 686.235 186.57C692.776 188.992 716.745 142.355 720.229 137.249C732.585 119.138 746.688 102.214 760.636 85.3418C771.347 72.3861 786.709 50.974 805.626 48.3973C841.211 43.5499 850.707 86.0539 859.319 112.865C862.478 122.697 870.659 149.732 874.163 140.02C884.327 111.846 889.433 86.7167 913.197 65.8536C931.341 49.9242 956.633 35.3124 981.184 33.25C994.094 32.1656 1001.69 33.3269 1009.77 43.7792C1019.28 56.0752 1026.59 69.8626 1036.34 82.2015C1046.16 94.6163 1051.94 110.274 1062.92 121.917C1068.45 127.791 1074.03 133.173 1078.68 139.835C1084.2 147.754 1081.27 122.245 1081.06 120.07C1079.11 100.137 1076.59 80.1445 1082.16 60.4966C1085.93 47.1848 1091.5 33.8116 1097.64 21.4278C1100.48 15.7049 1103.21 8.15657 1109.92 6.46529C1127.57 2.01739 1147.27 15.2264 1164.81 18.4722C1194.6 23.9888 1224.33 26.2744 1253.5 35.0973C1268.2 39.5414 1282.32 45.9457 1296.75 51.1681C1302.48 53.2412 1304 52.4137 1309.58 49.8751C1324.09 43.2709 1338.69 38.3019 1353.93 33.6195C1382.15 24.943 1409.29 14.1939 1437.77 6.46529C1446.32 4.14429 1455.5 0 1464.52 0C1472.67 0 1479.41 18.8506 1481.66 24.0139C1489.64 42.3631 1493.99 62.5556 1502.55 80.539C1504.1 83.8063 1508.14 94.7721 1512.81 89.2209C1518.06 82.9789 1519.69 73.674 1522.52 66.223C1526.61 55.4312 1531.95 44.1573 1540.11 35.8362C1553.98 21.6895 1577.92 16.1006 1596.83 14.9625C1607.85 14.2991 1620.76 13.0985 1628.72 22.3514C1636.01 30.8324 1632.24 48.4057 1644.02 52.6459C1650.47 54.9679 1655.74 54.8256 1661.7 51.2605C1664.86 49.3729 1677.14 38.2375 1666.19 38.2375C1642.5 38.2375 1627.53 69.6164 1622.4 88.8515C1612.17 127.187 1616.35 169.835 1616.35 209.013C1616.35 230.458 1615.27 249.812 1621.85 270.434C1629.93 295.789 1639.42 320.722 1649.7 345.246C1654.74 357.269 1659.68 368.536 1661.25 381.637C1666.44 425.188 1664.18 469.741 1664.18 513.528C1664.18 521.426 1665.37 530.041 1667.11 537.727C1667.62 539.966 1667.51 539.292 1666.38 537.727C1660.65 529.817 1655.3 521.626 1649.7 513.621C1623.41 476.05 1609.67 432.009 1584.74 393.644C1573.51 376.37 1562.52 357.032 1547.81 342.475C1544.67 339.368 1539.43 334.207 1534.62 336.749C1526.16 341.214 1526.02 360.272 1525.09 368.152C1523.03 385.563 1524.01 403.247 1526.74 420.521C1531.44 450.344 1542.44 478.969 1546.71 508.726C1546.83 509.546 1548.04 515.17 1546.44 513.898C1540.42 509.129 1533.41 505.592 1526.92 501.521C1511.61 491.916 1496.05 483.562 1481.29 472.889C1440.88 443.67 1402.14 412.146 1361.26 383.576C1336.76 366.455 1310.22 352.174 1286.12 334.532C1274.4 325.949 1261.55 306.243 1247 302.575C1234.03 299.308 1228.21 365.547 1227.3 371.292C1221.06 410.722 1222.25 453.615 1211.54 492.193C1209.9 498.069 1209.3 507.495 1208.97 513.528C1208.89 515.03 1209.02 524.616 1206.96 524.427C1202.27 523.998 1193.79 496.478 1193.49 495.703C1182.66 468.277 1173.56 439.926 1160.59 413.409C1151.45 394.711 1137.24 371.2 1119.73 359.193C1098.96 344.957 1081.58 356.688 1064.29 369.814C1037.73 389.98 1006.19 402.495 980.085 422.922C964.677 434.979 949.901 448.893 945.999 468.918C942.768 485.501 941.784 536.339 941.784 519.439C941.784 505.305 926.816 487.978 918.877 477.415C900.548 453.026 879.547 432.78 853.364 417.196C835.348 406.473 821.266 400.478 800.678 400.478C783.077 400.478 784.771 418.861 783.818 433.359C782.574 452.294 782.956 474.649 768.791 489.33C767.294 490.881 750.588 503.672 750.466 499.489C749.264 458.302 694.803 445.411 661.312 449.06C642.566 451.103 634.122 459.257 628.326 476.492C623.53 490.752 618.437 501.976 607.893 512.605C604.321 516.205 601.606 521.332 598.73 525.535C592.661 534.406 595.309 527.305 589.384 518.885C570.829 492.52 543.08 467.731 517.914 447.767C513.846 444.539 480.228 415.352 473.017 421.167C468.39 424.898 466.014 433.17 463.854 438.346C459.551 448.656 454.776 459.271 453.042 470.396C451.024 483.341 453.623 498.532 448.735 510.85C448.668 511.02 448.161 507.719 447.911 507.063C445.396 500.472 440.265 496.116 434.716 492.101C417.332 479.52 389.318 482.687 368.928 477.877C359.519 475.657 336.701 464.37 327.878 473.074C315.442 485.344 304.647 506.651 298.924 523.134C297.199 528.101 297.077 536.591 293.976 540.498C292.661 542.155 294.073 545.558 293.518 547.517C291.828 553.479 247.593 548.585 242.207 547.333C228.574 544.161 212.272 530.107 208.029 516.207C205.967 509.451 204.13 502.97 198.683 497.919C197.578 496.894 186.035 487.783 185.122 491.362C181.676 504.872 184.252 526.088 188.055 539.39C188.767 541.881 188.557 549.49 190.07 551.396C191.576 553.294 193.653 554.739 194.652 556.753" stroke="#817F7F" stroke-opacity="0.48" stroke-width="3" stroke-linecap="round"/>
</svg>
