<svg width="394" height="485" viewBox="0 0 394 485" fill="none" xmlns="http://www.w3.org/2000/svg">
<path d="M1.8855 476.397C1.8855 469.766 3.7746 463.621 4.76461 458.673C8.76972 438.654 13.5989 420.746 19.3688 407.911C22.2388 401.527 25.2322 397.391 28.0896 405.813C30.4308 412.713 32.9368 418.887 35.2247 426.024C37.8247 434.134 39.3897 448.487 41.6714 458.051C42.6206 462.03 43.7366 466.6 44.321 471.499C44.7736 475.293 45.3545 462.766 45.5311 461.238C50.2823 420.142 58.0154 376.356 68.1884 351.086C72.6689 339.957 82.5698 330.667 86.9235 346.889C90.8762 361.616 93.0162 381.88 94.4551 401.537C95.4944 415.737 95.7711 432.767 97.4385 446.08C98.0701 451.122 99.3281 455.32 100.359 459.295C100.943 461.543 101.038 464.207 101.486 466.291C101.73 467.426 102.702 478.573 102.905 478.573C103.647 478.573 107.159 452.424 107.599 449.889C114.392 410.729 121.156 370.853 128.796 333.907C133.093 313.127 140.943 270.207 149.575 285.866C152.45 291.08 156.536 299.56 158.192 310.508C159.512 319.237 160.648 328.316 161.864 337.249C163.825 351.665 166.358 366.054 167.205 382.181C168.137 399.944 168.979 417.563 170.292 435.041C170.934 443.584 172.379 454.29 172.379 463.182C172.379 465.267 172.361 474.793 172.838 476.086C175.074 482.147 182.334 432.802 182.748 429.911C190.194 377.924 193.399 318.919 201.483 268.142C203.409 256.046 204.651 249.719 208.388 249.719C212.862 249.719 218.621 246.101 222.909 251.273C226.95 256.148 231.648 266.271 233.299 281.746C234.774 295.577 235.057 310.564 235.928 324.967C237.181 345.706 238.2 367.172 239.787 387.545C240.817 400.752 242.979 416.888 242.979 430.766C242.979 439.615 245.4 448.512 246.443 456.03C247.255 461.886 248.517 467.716 249.071 473.909C249.177 475.086 249.659 481.333 249.739 478.884C250.304 461.611 252.207 444.005 253.494 427.423C256.124 393.554 258.658 359.536 261.631 326.055C263.775 301.914 266.391 278.49 268.891 254.849C270.244 242.061 271.221 226.875 273.356 215.437C275.347 204.776 279.73 195.56 282.911 191.028C289.979 180.959 295.945 198.315 301.334 214.038C306.542 229.235 310.732 247.641 313.538 270.008C314.919 281.012 316.695 293.274 317.252 305.378C317.971 320.993 318.347 336.777 319.13 352.33C320.211 373.824 321.619 395.296 322.593 416.851C323.015 426.202 323.156 432.318 325.013 439.239C326.015 442.972 326.496 444.152 326.933 449.034C327.247 452.549 328.361 456.115 328.581 458.984C328.844 462.417 329.215 466.089 329.916 468.701C330.482 470.811 330.759 473.797 331.147 476.397C331.528 478.953 331.574 475.745 331.606 473.987C331.992 452.746 332.306 431.646 332.983 410.477C334.539 361.805 335.706 309.844 339.701 262.778C341.143 245.791 342.901 229.041 344.499 212.25C344.84 208.666 345.275 201.542 346.168 198.879C346.818 196.943 348.618 206.672 348.922 207.974C350.985 216.811 352.849 226.238 354.889 235.104C356.307 241.267 357.617 247.281 358.728 254.227C363.805 285.982 367.229 321.866 369.952 357.383C370.707 367.221 371.493 377.065 371.705 387.311C371.826 393.174 371.385 401.156 372.769 405.191C375.565 413.345 378.435 420.889 381.281 428.745C384.82 438.512 385.063 455.456 386.726 469.401C387.073 472.305 387.936 483.969 387.936 482.693C387.936 446.296 388.431 409.925 388.291 373.474C388.208 351.772 387.121 331.259 386.434 309.886C385.587 283.513 386.383 256.907 387.394 230.751C387.76 221.27 388.735 235.411 389.438 238.525C390.09 241.408 390.359 246.254 390.148 237.98C389.548 214.53 387.23 191.437 385.808 168.64C383.498 131.612 381.524 95.6186 377.859 60.1204C377.19 53.6354 376.099 50.5982 378.652 54.057C381.371 57.7411 385.995 63.4362 388.228 70.9257C388.683 72.451 389.488 72.3934 390.106 73.1023C390.44 73.4847 390.784 73.1462 391.107 73.491C391.253 73.6459 391.5 75.7906 391.608 75.5898C392.218 74.4539 381.768 35.195 380.822 31.669C379.57 27.0056 377.525 23.7905 376.065 20.1641C372.77 11.9778 369.246 8.44349 365.3 7.72629C363.547 7.40771 361.601 6.75117 360.063 10.4471C358.001 15.4046 357.281 26.1073 356.579 34.2343C355.054 51.8998 354.24 70.4596 353.554 88.805C353.076 101.573 353.025 114.337 353.011 127.207C353.005 133.105 353.682 146.492 352.782 152.082C351.892 157.61 342.258 124.476 341.349 121.532C335.449 102.428 330.948 76.2973 324.638 59.2653C321.63 51.146 318.671 52.5881 315.291 49.937C312.821 47.9995 314.073 62.2518 314.331 67.6608C315.071 83.1311 317.047 96.985 318.546 111.504C318.873 114.675 321.384 135.072 320.465 134.669C315.964 132.696 311.233 124.134 307.196 117.101C300.089 104.719 293.5 88.4231 286.709 73.8797C281.567 62.8705 276.248 50.5887 270.56 43.8735C267.158 39.8567 263.495 39.0553 259.962 37.8101C258.136 37.1665 255.319 35.3301 253.661 39.3649C251.798 43.9018 251.757 56.1451 251.659 63.3076C251.082 105.172 254.675 146.161 256.207 187.374C256.642 199.095 257.019 210.878 257.604 222.511C257.767 225.74 258.108 229.546 258.001 232.928C257.996 233.097 257.959 233.886 257.834 233.705C256.301 231.483 254.403 224.879 253.223 221.5C246.981 203.624 241.059 184.238 235.051 165.297C228.828 145.675 222.373 121.967 214.272 113.603C211.952 111.207 205.465 106.931 203.235 112.748C202.216 115.407 202.422 121.887 202.422 125.807C202.422 137.927 202.742 149.678 203.59 161.41C204.413 172.803 205.366 185.647 207.095 195.77C207.194 196.352 203.428 182.224 202.63 179.445C197.069 160.07 190.257 145.368 182.685 140.111C181.261 139.122 179.538 137.934 178.074 137.934C177.23 137.934 177.375 146.85 177.344 148.506C176.8 177.352 176.885 206.203 176.885 235.104C176.885 249.615 176.885 264.126 176.885 278.636C176.885 287.392 176.756 296.026 176.593 304.756C176.537 307.758 176.834 314.521 176.322 317.193C175.617 320.868 175.649 308.507 175.216 304.289C173.381 286.419 170.734 269.4 167.997 253.294C163.095 224.442 157.806 192.32 149.075 177.968C143.576 168.929 137.532 164.838 131.571 163.276C127.694 162.26 125.927 164.28 123.768 176.18C120.529 194.025 116.537 210.411 114.046 229.974C111.457 250.305 110.307 273.517 109.372 295.583C108.845 308.028 108.563 320.529 107.787 332.818C107.763 333.184 107.462 337.249 107.411 337.249C107.31 337.249 107.374 336.497 107.328 336.161C106.508 330.196 105.237 324.457 104.261 318.981C97.679 282.075 92.7128 241.983 86.5062 204.321C82.9988 183.038 79.6254 172.09 73.6546 190.017C66.5383 211.384 60.6159 238.005 54.0641 261.612C49.9582 276.407 44.9016 291.246 43.2153 312.452C41.2773 336.823 39.2785 363.637 38.542 388.944C38.3461 395.673 37.8719 415.8 38.3125 409.233C38.8518 401.194 39.0973 391.783 39.147 383.58C39.3728 346.284 35.3887 312.741 25.8363 299.003C22.2937 293.908 19.1616 292.018 16.3645 302.735C11.1453 322.732 8.89991 350.713 6.93437 376.895C5.5113 395.851 2.58109 412.094 1.15529 430.688C0.96614 433.155 1.13443 425.558 1.13443 422.992C1.13443 411.111 0.773739 400.062 0.404219 388.244C-0.680642 353.549 0.393024 316.631 3.93008 284.389C5.73354 267.95 7.97338 251.457 10.2725 235.882C11.7784 225.679 13.4504 216.984 16.6148 213.649C20.5182 209.536 25.0581 209.089 28.8406 214.815C32.1729 219.859 34.1087 228.774 36.4348 238.525C36.6814 239.558 39.5781 251.833 39.6268 251.506C40.4164 246.211 39.8068 234.866 39.8146 229.196C39.8353 214.077 40.0666 199.041 40.5657 184.032C41.571 153.796 46.5492 130.03 52.0821 108.394C54.6441 98.3765 57.7556 88.8927 61.241 83.7521C65.0586 78.1217 69.4634 78.8606 73.4877 79.3212C84.9571 80.6339 103.107 88.064 106.493 139.022C107.882 159.917 108.162 182.828 108.162 204.321C108.162 220.375 108.818 197.428 109.143 193.049C110.964 168.513 116.448 149.851 121.264 133.115C124.976 120.216 129.842 101.39 135.305 100.077C137.081 99.6498 137.592 101.771 138.914 105.907C141.41 113.711 143.863 122.624 146.717 128.606C147.657 130.576 148.783 131.731 149.68 133.892C152.16 139.873 153.517 155.491 156.252 159.234C157.741 161.272 163.199 122.02 163.992 117.723C166.805 102.48 170.016 88.2356 173.192 74.0351C175.631 63.131 179.129 45.1094 183.436 42.9407C191.539 38.8609 193.701 74.6345 195.662 97.2005C196.381 105.476 198.244 128.229 199.042 120.055C201.356 96.3428 202.519 75.1923 207.929 57.6328C212.061 44.2258 217.82 31.9278 223.41 30.192C226.349 29.2793 228.078 30.2567 229.919 39.0539C232.085 49.4028 233.749 61.007 235.969 71.3921C238.203 81.8411 239.521 95.0193 242.02 104.819C243.28 109.763 244.549 114.293 245.608 119.899C246.867 126.564 246.199 105.095 246.151 103.264C245.707 86.4878 245.133 69.6608 246.401 53.1241C247.26 41.9202 248.528 30.6647 249.927 20.2418C250.573 15.4251 251.194 9.07203 252.723 7.64855C256.741 3.90497 261.228 15.0224 265.22 17.7542C272.004 22.3973 278.772 24.3209 285.415 31.7467C288.761 35.4872 291.976 40.8773 295.262 45.2728C296.567 47.0176 296.913 46.3211 298.183 44.1845C301.489 38.6261 304.813 34.4439 308.281 30.5029C314.708 23.2003 320.886 14.1534 327.371 7.64855C329.318 5.69509 331.409 2.20703 333.463 2.20703C335.319 2.20703 336.852 18.0727 337.364 22.4184C339.183 37.8621 340.173 54.8571 342.121 69.9929C342.475 72.7428 343.394 81.9722 344.458 77.3C345.654 72.0464 346.026 64.2149 346.669 57.9438C347.601 48.8608 348.817 39.3721 350.675 32.3686C353.833 20.4621 359.283 15.7581 363.589 14.8003C366.099 14.2419 369.038 13.2314 370.849 21.0192C372.51 28.1572 371.652 42.9478 374.334 46.5166C375.802 48.4709 377.001 48.3511 378.36 45.3505C379.08 43.7619 381.875 34.3897 379.382 34.3897C373.987 34.3897 370.578 60.7999 369.41 76.9891C367.082 109.254 368.033 145.149 368.033 178.124C368.033 196.172 367.788 212.462 369.285 229.818C371.125 251.158 373.285 272.143 375.627 292.784C376.775 302.903 377.9 312.386 378.256 323.412C379.438 360.067 378.923 397.566 378.923 434.419C378.923 441.066 379.194 448.317 379.591 454.786C379.707 456.671 379.682 456.103 379.424 454.786C378.12 448.128 376.902 441.235 375.627 434.497C369.642 402.875 366.513 365.808 360.835 333.518C358.279 318.98 355.776 302.704 352.427 290.452C351.712 287.837 350.519 283.493 349.423 285.633C347.498 289.391 347.466 305.431 347.253 312.063C346.784 326.717 347.008 341.601 347.629 356.139C348.701 381.24 351.204 405.332 352.177 430.377C352.204 431.067 352.48 435.801 352.114 434.73C350.743 430.717 349.148 427.74 347.67 424.314C344.185 416.23 340.641 409.198 337.281 400.216C328.08 375.623 319.258 349.09 309.95 325.045C304.372 310.635 298.33 298.615 292.842 283.767C290.172 276.543 287.247 259.957 283.934 256.87C280.982 254.121 279.655 309.87 279.448 314.706C278.028 347.892 278.3 383.993 275.86 416.462C275.488 421.408 275.351 429.342 275.276 434.419C275.257 435.683 275.286 443.751 274.817 443.592C273.75 443.231 271.819 420.069 271.75 419.416C269.285 396.333 267.212 372.472 264.26 350.154C262.178 334.417 258.943 314.628 254.955 304.522C250.226 292.541 246.27 302.415 242.333 313.462C236.284 330.435 229.103 340.968 223.16 358.16C219.651 368.308 216.287 380.019 215.398 396.873C214.663 410.83 214.439 453.618 214.439 439.395C214.439 427.498 211.031 412.915 209.223 404.025C205.049 383.498 200.268 366.457 194.306 353.341C190.204 344.316 186.997 339.27 182.31 339.27C178.302 339.27 178.688 354.742 178.471 366.945C178.188 382.881 178.274 401.697 175.049 414.053C174.708 415.359 170.904 426.124 170.877 422.604C170.603 387.938 158.203 377.088 150.577 380.16C146.309 381.879 144.386 388.742 143.066 403.247C141.974 415.249 140.814 424.696 138.414 433.642C137.6 436.673 136.982 440.988 136.327 444.525C134.945 451.991 135.548 446.014 134.199 438.928C129.974 416.737 123.656 395.874 117.926 379.071C117 376.355 109.345 351.789 107.703 356.683C106.65 359.824 106.109 366.785 105.617 371.142C104.637 379.82 103.55 388.754 103.155 398.117C102.695 409.012 103.287 421.798 102.174 432.165C102.159 432.308 102.044 429.53 101.987 428.978C101.414 423.43 100.246 419.764 98.9824 416.385C95.024 405.796 88.6455 408.462 84.0027 404.413C81.8603 402.545 76.6648 393.045 74.656 400.371C71.8242 410.698 69.3664 428.631 68.0632 442.504C67.6705 446.685 67.6426 453.83 66.9366 457.118C66.6371 458.513 66.9587 461.378 66.8323 463.026C66.4476 468.044 56.3754 463.925 55.149 462.871C52.045 460.202 48.3331 448.373 47.3671 436.674C46.8975 430.988 46.4792 425.533 45.239 421.282C44.9874 420.419 42.3591 412.751 42.1513 415.763C41.3665 427.134 41.9532 444.99 42.8189 456.186C42.9811 458.282 42.9334 464.687 43.2779 466.291C43.6207 467.888 44.0936 469.105 44.321 470.8" stroke="#817F7F" stroke-opacity="0.48" stroke-width="3" stroke-linecap="round"/>
<path d="M0.457031 192.51C0.457031 184.811 2.42001 175.844 3.36382 169.485C6.92027 145.522 10.2687 121.076 14.1336 97.7628C14.5191 95.4376 18.5286 67.3589 20.0308 71.0032C22.3766 76.6939 23.8246 90.3018 24.9661 99.163C26.8357 113.677 28.4698 128.562 30.1732 143.347C31.2207 152.439 31.458 140.967 31.7207 135.957C33.0049 111.476 34.5624 86.7841 38.7054 66.647C42.1082 50.1078 46.375 34.735 51.4827 25.7298C55.6326 18.4134 60.2211 17.4841 64.7411 17.4841C69.306 17.4841 75.1099 19.4199 79.0032 29.0748C81.6979 35.7573 83.6516 45.3273 86.1551 52.8005C87.9308 58.101 89.7682 62.8299 91.0068 70.0698C92.021 75.9984 101.11 52.3978 102.258 49.8445C107.874 37.3463 113.291 24.5739 119.322 14.9949C121.685 11.2414 124.096 7.95567 126.474 4.33773C127.663 2.52788 128.02 6.56798 128.481 10.0941C130.617 26.4209 134.269 47.4588 138.226 58.0902C139.594 61.7628 141.224 63.2045 142.534 67.1916C143.191 69.1888 143.473 71.4274 144.145 68.0472C146.814 54.6138 149.064 41.2731 152.321 29.5415C154.366 22.1764 156.763 14.3065 159.473 10.4831C160.138 9.5458 161.574 6.68416 162.317 7.99383C165.07 12.8444 167.302 23.5249 169.637 30.6305C171.898 37.5131 171.21 45.6011 174.697 45.4883C181.442 45.2702 187.508 41.637 193.936 34.1311C197.975 29.4155 202.019 24.6837 206.107 20.5957C206.551 20.1525 208.463 16.9676 208.596 20.4401C208.873 27.6617 208.617 35.7376 208.617 42.9991C208.617 66.6051 206.862 102.122 213.719 114.876C218.592 123.939 225.518 122.358 230.491 116.666C237.112 109.087 243.282 96.5464 249.856 88.2725C256.596 79.7897 264.191 73.0428 271.353 73.7259C274.112 73.989 277.532 77.0261 278.631 87.6502C280.23 103.113 280.827 120.657 281.768 136.813C282.317 146.249 283.357 145.899 285.741 150.037C289.726 156.955 293.882 162.285 297.933 168.629C300.615 172.83 303.636 185.007 306.779 179.597C310.629 172.971 313.78 159.351 317.444 151.126C318.622 148.48 322.643 137.593 324.345 141.325C326.857 146.835 325.85 163.206 328.736 167.151C334.55 175.099 341.459 167.171 347.474 168.084C350.008 168.469 350.728 172.145 351.238 180.686C351.318 182.034 351.522 195.782 352.033 195C352.526 194.244 353.457 194.612 353.831 193.599C355.871 188.079 359.541 185.118 362.008 184.265C364.545 183.386 368.841 181.47 371.397 184.187C372.071 184.902 373.457 196.896 373.488 199.822C373.548 205.345 376.557 200.8 377.253 200.056C380.672 196.395 383.687 188.946 385.973 178.742C387.807 170.556 388.504 158.282 391.18 153.304" stroke="#817F7F" stroke-opacity="0.48" stroke-width="3" stroke-linecap="round"/>
</svg>
